<svg xmlns="http://www.w3.org/2000/svg" version="1.1" xmlns:xlink="http://www.w3.org/1999/xlink" xmlns:svgjs="http://svgjs.dev/svgjs" width="1500" height="1500" viewBox="0 0 1500 1500"><rect width="1500" height="1500" fill="#ffffff"></rect><g transform="matrix(0.6666666666666666,0,0,0.6666666666666666,249.44706369066387,308.0248313090418)"><svg viewBox="0 0 279 247" data-background-color="#ffffff" preserveAspectRatio="xMidYMid meet" height="1327" width="1500" xmlns="http://www.w3.org/2000/svg" xmlns:xlink="http://www.w3.org/1999/xlink"><g id="tight-bounds" transform="matrix(1,0,0,1,0.15426923030477724,-0.09999999999999432)"><svg viewBox="0 0 278.69146153939045 247.2" height="247.2" width="278.69146153939045"><g><svg viewBox="0 0 395.52 350.82719599638955" height="247.2" width="278.69146153939045"><g transform="matrix(1,0,0,1,0,260.9362869054805)"><svg viewBox="0 0 395.52 89.89090909090908" height="89.89090909090908" width="395.52"><g id="textblocktransform"><svg viewBox="0 0 395.52 89.89090909090908" height="89.89090909090908" width="395.52" id="textblock"><g><svg viewBox="0 0 395.52 89.89090909090908" height="89.89090909090908" width="395.52"><g transform="matrix(1,0,0,1,0,0)"><svg width="395.52" viewBox="3.55 -36.5 210.57999999999998 47.75" height="89.89090909090908" data-palette-color="#138de6"><g class="wordmark-text-0" data-fill-palette-color="primary" id="text-0"><path d="M42.9-15.6L42.9 0 38.5 0 38.5-14.6Q38.5-18.7 37.18-20.65 35.85-22.6 33.25-22.6L33.25-22.6Q30.6-22.6 28.45-20.68 26.3-18.75 25.4-15.7L25.4-15.7 25.4 0 21 0 21-14.6Q21-18.75 19.7-20.68 18.4-22.6 15.8-22.6L15.8-22.6Q13.2-22.6 11.03-20.73 8.85-18.85 7.95-15.75L7.95-15.75 7.95 0 3.55 0 3.55-26.1 7.55-26.1 7.55-20.5Q9.15-23.4 11.7-24.98 14.25-26.55 17.45-26.55L17.45-26.55Q20.7-26.55 22.65-24.78 24.6-23 25.05-20.2L25.05-20.2Q26.8-23.3 29.3-24.93 31.8-26.55 35-26.55L35-26.55Q37.25-26.55 38.78-25.73 40.3-24.9 41.2-23.43 42.1-21.95 42.5-19.95 42.9-17.95 42.9-15.6L42.9-15.6ZM50.95 11L50.95 7.1Q51.6 7.15 52.25 7.23 52.9 7.3 53.25 7.3L53.25 7.3Q54.05 7.3 54.65 6.75 55.25 6.2 55.97 4.63 56.7 3.05 57.85 0L57.85 0 46.8-26.1 51.45-26.1 60.25-4.45 68.2-26.1 72.55-26.1 59.85 6.85Q59.4 8 58.52 9.03 57.65 10.05 56.3 10.65 54.95 11.25 53.05 11.25L53.05 11.25Q52.6 11.25 52.12 11.2 51.65 11.15 50.95 11L50.95 11ZM90.4 0.5L90.4 0.5Q87.35 0.5 84.85-1 82.35-2.5 80.9-4.9L80.9-4.9 80.9 0 77 0 77-36.5 81.4-36.5 81.4-20.9Q83.05-23.45 85.45-25 87.85-26.55 91.05-26.55L91.05-26.55Q93.75-26.55 95.9-25.43 98.05-24.3 99.57-22.38 101.1-20.45 101.92-18.03 102.75-15.6 102.75-12.95L102.75-12.95Q102.75-10.2 101.82-7.78 100.9-5.35 99.2-3.48 97.5-1.6 95.27-0.55 93.05 0.5 90.4 0.5ZM89.3-3.3L89.3-3.3Q91.25-3.3 92.9-4.1 94.55-4.9 95.75-6.25 96.95-7.6 97.6-9.35 98.25-11.1 98.25-12.95L98.25-12.95Q98.25-15.5 97.17-17.75 96.1-20 94.17-21.38 92.25-22.75 89.7-22.75L89.7-22.75Q87.85-22.75 86.25-21.9 84.65-21.05 83.42-19.68 82.2-18.3 81.4-16.65L81.4-16.65 81.4-9.1Q81.65-7.85 82.45-6.8 83.25-5.75 84.4-4.98 85.55-4.2 86.82-3.75 88.1-3.3 89.3-3.3ZM119.54 0.5L119.54 0.5Q116.59 0.5 114.19-0.58 111.79-1.65 110.04-3.53 108.29-5.4 107.34-7.85 106.39-10.3 106.39-13L106.39-13Q106.39-15.75 107.34-18.2 108.29-20.65 110.04-22.53 111.79-24.4 114.22-25.48 116.64-26.55 119.59-26.55L119.59-26.55Q122.49-26.55 124.89-25.48 127.29-24.4 129.07-22.53 130.84-20.65 131.79-18.2 132.74-15.75 132.74-13L132.74-13Q132.74-10.3 131.79-7.85 130.84-5.4 129.09-3.53 127.34-1.65 124.92-0.58 122.49 0.5 119.54 0.5ZM110.89-12.95L110.89-12.95Q110.89-10.25 112.07-8.05 113.24-5.85 115.19-4.58 117.14-3.3 119.54-3.3L119.54-3.3Q121.94-3.3 123.92-4.6 125.89-5.9 127.07-8.13 128.24-10.35 128.24-13.05L128.24-13.05Q128.24-15.75 127.07-17.95 125.89-20.15 123.92-21.45 121.94-22.75 119.54-22.75L119.54-22.75Q117.14-22.75 115.19-21.43 113.24-20.1 112.07-17.9 110.89-15.7 110.89-12.95ZM149.49 0.5L149.49 0.5Q146.54 0.5 144.14-0.58 141.74-1.65 139.99-3.53 138.24-5.4 137.29-7.85 136.34-10.3 136.34-13L136.34-13Q136.34-15.75 137.29-18.2 138.24-20.65 139.99-22.53 141.74-24.4 144.17-25.48 146.59-26.55 149.54-26.55L149.54-26.55Q152.44-26.55 154.84-25.48 157.24-24.4 159.02-22.53 160.79-20.65 161.74-18.2 162.69-15.75 162.69-13L162.69-13Q162.69-10.3 161.74-7.85 160.79-5.4 159.04-3.53 157.29-1.65 154.87-0.58 152.44 0.5 149.49 0.5ZM140.84-12.95L140.84-12.95Q140.84-10.25 142.02-8.05 143.19-5.85 145.14-4.58 147.09-3.3 149.49-3.3L149.49-3.3Q151.89-3.3 153.87-4.6 155.84-5.9 157.02-8.13 158.19-10.35 158.19-13.05L158.19-13.05Q158.19-15.75 157.02-17.95 155.84-20.15 153.87-21.45 151.89-22.75 149.49-22.75L149.49-22.75Q147.09-22.75 145.14-21.43 143.19-20.1 142.02-17.9 140.84-15.7 140.84-12.95ZM191.19 0L186.44 0 177.39-12.7 172.44-8.05 172.44 0 168.04 0 168.04-36.5 172.44-36.5 172.44-12.65 185.94-26.05 190.69-26.05 180.29-15.25 191.19 0ZM203.94 0.5L203.94 0.5Q200.69 0.5 197.84-0.58 194.99-1.65 192.94-3.8L192.94-3.8 194.63-6.9Q196.88-4.8 199.13-3.9 201.38-3 203.74-3L203.74-3Q206.44-3 208.13-4.03 209.84-5.05 209.84-7.05L209.84-7.05Q209.84-8.5 208.96-9.2 208.09-9.9 206.49-10.38 204.88-10.85 202.69-11.45L202.69-11.45Q199.99-12.25 198.13-13.15 196.28-14.05 195.34-15.4 194.38-16.75 194.38-18.8L194.38-18.8Q194.38-21.3 195.69-23.03 196.99-24.75 199.26-25.65 201.53-26.55 204.44-26.55L204.44-26.55Q207.34-26.55 209.69-25.65 212.03-24.75 213.74-23L213.74-23 211.74-19.95Q210.19-21.55 208.34-22.33 206.49-23.1 204.19-23.1L204.19-23.1Q202.84-23.1 201.53-22.78 200.24-22.45 199.38-21.63 198.53-20.8 198.53-19.3L198.53-19.3Q198.53-18.05 199.21-17.32 199.88-16.6 201.21-16.1 202.53-15.6 204.44-15L204.44-15Q207.38-14.15 209.56-13.3 211.74-12.45 212.94-11.1 214.13-9.75 214.13-7.35L214.13-7.35Q214.13-3.65 211.34-1.58 208.53 0.5 203.94 0.5Z" fill="#000000" data-fill-palette-color="primary"></path></g></svg></g></svg></g></svg></g></svg></g><g transform="matrix(1,0,0,1,88.51294280180521,0)"><svg viewBox="0 0 218.49411439638956 218.49411439638956" height="218.49411439638956" width="218.49411439638956"><g><svg></svg></g><g id="icon-0"><svg viewBox="0 0 218.49411439638956 218.49411439638956" height="218.49411439638956" width="218.49411439638956"><g><path d="M0 109.247c0-60.335 48.912-109.247 109.247-109.247 60.335 0 109.247 48.912 109.247 109.247 0 60.335-48.912 109.247-109.247 109.247-60.335 0-109.247-48.912-109.247-109.247zM109.247 210.388c55.858 0 101.141-45.282 101.141-101.141 0-55.858-45.282-101.141-101.141-101.141-55.858 0-101.141 45.282-101.141 101.141 0 55.858 45.282 101.141 101.141 101.141z" data-fill-palette-color="accent" fill="#000000" stroke="transparent"></path></g><g transform="matrix(1,0,0,1,61.818367993026946,46.37180510419742)"><svg viewBox="0 0 94.85737841033567 125.75050418799472" height="125.75050418799472" width="94.85737841033567"><g><svg version="1.1" xmlns="http://www.w3.org/2000/svg" xmlns:xlink="http://www.w3.org/1999/xlink" x="0" y="0" viewBox="0 0 75.43300046616562 100" enable-background="new 0 0 75.433 100" xml:space="preserve" width="94.85737841033567" height="125.75050418799472" class="icon-cg-0" data-fill-palette-color="accent" id="cg-0"><path fill="#000000" d="M8.431 8.148" data-fill-palette-color="accent"></path><path fill="#000000" d="M71.862 0H22.39c-1.965 0-5.181 0-7.145 0h-5.52C7.761 0 4.947 1.064 3.473 2.362L2.681 3.06C1.206 4.36 0 7.031 0 8.995v2.727 0.593 84.113C0 98.392 1.608 100 3.572 100h62.132c1.967 0 3.572-1.608 3.572-3.572V11.722c0-1.965-1.605-3.572-3.572-3.572H24.172c0-1.301-1.055-2.355-2.353-2.355s-2.35 1.054-2.35 2.355v0.923 23.594l-5.917-5.777-5.12 5.777V8.148h-4.86c-0.026 0-0.049 0.006-0.075 0.008L7.34 3.755h11.475 52.988V93.04h0.057c1.963 0 3.573-1.608 3.573-3.572V3.573C75.434 1.607 73.826 0 71.862 0z" data-fill-palette-color="accent"></path></svg></g></svg></g></svg></g></svg></g><g></g></svg></g><defs></defs></svg><rect width="278.69146153939045" height="247.2" fill="none" stroke="none" visibility="hidden"></rect></g></svg></g></svg>